<svg id="Capa_1" enable-background="new 0 0 512 512" height="512" viewBox="0 0 512 512" width="512" xmlns="http://www.w3.org/2000/svg"><g><g><g><path d="m302.95 59.577 9-8.03-9-8.71s-39.166-53.341-60.606-40.978c-15.43 8.898-17.812 38.13-17.565 57.718l39.086 9z" fill="#ff4d54"/><path d="m224.779 59.577c.135 10.738 1.06 18.581 1.06 18.581l38.026 9 39.086-9 9-9.581-9-9z" fill="#ea4955"/><path d="m344.524 59.577-9-8.03 9-8.71s39.166-53.341 60.606-40.978c15.43 8.898 17.812 38.13 17.565 57.718l-39.086 9z" fill="#ff4d54"/><path d="m422.695 59.577c-.135 10.738-1.06 18.581-1.06 18.581l-38.026 9-39.086-9-9-9.581 9-9z" fill="#ea4955"/><path d="m302.95 59.577 20.795 9 20.795-9v-16.74h-41.59z" fill="#cc353e"/><path d="m302.95 59.577v18.581l20.795 9 20.796-9v-18.581z" fill="#c12131"/><path d="m192.939 130.159 130.806-9.581 133.699 9.581v347.775c0 8.552-6.933 15.485-15.485 15.485h-233.535c-8.552 0-15.485-6.933-15.485-15.485z" fill="#85cf99"/><path d="m182.593 130.159h285.197c5.701 0 10.323-4.622 10.323-10.323v-31.355c0-5.701-4.622-10.323-10.323-10.323h-123.266l-20.778 9-20.795-9h-120.358c-5.701 0-10.323 4.622-10.323 10.323v31.355c0 5.701 4.622 10.323 10.323 10.323z" fill="#b1e7a1"/><path d="m467.791 111.579h-285.197c-5.701 0-10.323-4.622-10.323-10.323v18.581c0 5.701 4.622 10.323 10.323 10.323h285.197c5.701 0 10.323-4.622 10.323-10.323v-18.581c0 5.701-4.622 10.323-10.323 10.323z" fill="#97d4a8"/><path d="m302.95 111.579 20.795 9 20.796-9v-33.421h-41.591z" fill="#ff4d54"/><path d="m302.95 130.159 20.796 9 20.795-9v-18.58h-41.591z" fill="#ea4955"/><path d="m302.95 130.159h41.591v133.295l-9 41.808 9 43.154v145.003h-41.591z" fill="#cc353e"/></g><g><path d="m151.495 234.551 9-9.237-9-8.682s-39.344-55.06-60.739-42.292c-15.552 9.281-17.83 39.985-17.534 60.21l39.137 9z" fill="#ff4d54"/><path d="m73.221 234.551c.157 10.776 1.044 18.581 1.044 18.581l38.092 9 39.137-9.024 9-9.267-9-9.29z" fill="#ea4955"/><path d="m193.046 234.551-9-9.237 9-8.682s39.344-55.06 60.74-42.292c15.552 9.281 17.83 39.985 17.534 60.21l-39.137 9z" fill="#ff4d54"/><path d="m271.32 234.551c-.157 10.776-1.044 18.581-1.044 18.581l-38.092 9-39.137-9.024-9-9.267 9-9.29z" fill="#ea4955"/><path d="m151.495 234.538 20.784 9.006 20.783-8.994v-17.906l-41.567-.012z" fill="#cc353e"/><path d="m151.495 234.551v18.556l20.784 9.012 20.784-8.988v-18.58z" fill="#c12131"/><path d="m33.063 502.419h278.415c8.552 0 15.485-5.904 15.485-24.485v-172.673l-154.692-9.58-154.692 9.58v172.673c-.001 18.581 6.932 24.485 15.484 24.485z" fill="#f786cb"/><path d="m10.323 295.681h323.894c5.702 0 10.323-7.111 10.323-19.323v-12.903c0-5.701-4.622-10.323-10.323-10.323h-141.171l-20.768 9-20.784-9h-141.171c-5.701-.001-10.323 4.621-10.323 10.322v12.903c0 14.453 4.622 19.324 10.323 19.324z" fill="#ffa5d5"/><path d="m334.217 286.681h-323.894c-5.701 0-10.323-4.622-10.323-10.323v18.581c0 5.701 4.622 10.323 10.323 10.323h323.894c5.702 0 10.323-4.622 10.323-10.323v-18.581c.001 5.701-4.621 10.323-10.323 10.323z" fill="#ff92d0"/><path d="m311.478 493.419h-278.415c-8.552 0-15.485-6.933-15.485-15.485v18.581c0 8.552 6.933 15.485 15.485 15.485h118.409l20.799-9.581 20.798 9.581h92.08l13.18-9.581 13.149 9.581c8.552 0 15.485-6.933 15.485-15.485v-18.581c-.001 8.553-6.933 15.485-15.485 15.485z" fill="#ef78c2"/><path d="m151.471 286.681 20.799 9 20.799-9v-33.55h-41.598z" fill="#ff4d54"/><path d="m151.471 305.262 20.808 9 20.79-9v-18.581h-41.598z" fill="#ea4955"/><path d="m151.471 305.262h41.598v188.157l-20.799 9-20.799-9z" fill="#cc353e"/><path d="m151.471 493.419h41.598v18.581h-41.598z" fill="#c12131"/></g><g><path d="m362.18 329.836 9-9.545-9-8.618s-32.257-41.28-49.707-26.091c-10.56 9.193-12.968 29.256-13.158 44.254l31.426 9z" fill="#ff4d54"/><path d="m299.316 329.836c-.133 10.541.829 18.581.829 18.581l29.86 9 32.176-9 9-9.29-9-9.29h-62.865z" fill="#ea4955"/><path d="m402.463 329.836-9-9.545 9-8.618s32.258-41.28 49.707-26.091c10.56 9.193 12.968 29.256 13.158 44.254l-31.426 9z" fill="#ff4d54"/><path d="m465.327 329.836c.133 10.541-.829 18.581-.829 18.581l-29.86 9-32.176-9-9-9.29 9-9.29h62.865z" fill="#ea4955"/><path d="m362.18 329.836 20.141 9 20.142-9v-18.164h-40.283z" fill="#cc353e"/><path d="m362.18 329.836v18.58l20.141 9 20.142-9v-18.58z" fill="#c12131"/><path d="m285.15 502.419h194.344c8.552 0 15.485-5.904 15.485-24.485v-82.851l-112.657-9.581-112.657 9.581v82.851c0 18.581 6.933 24.485 15.485 24.485z" fill="#fcc07e"/><path d="m262.966 385.502h238.711c5.701 0 10.323-6.514 10.323-19.323v-7.44c0-5.701-4.622-10.323-10.323-10.323h-99.214l-20.141 9-20.141-9h-99.214c-5.701 0-10.323 4.622-10.323 10.323v7.44c-.001 18.581 4.621 19.323 10.322 19.323z" fill="#ffde8f"/><path d="m501.677 376.502h-238.711c-5.701 0-10.323-4.622-10.323-10.323v18.581c0 5.701 4.622 10.323 10.323 10.323h238.711c5.701 0 10.323-4.622 10.323-10.323v-18.581c0 5.702-4.622 10.323-10.323 10.323z" fill="#f9cd7f"/><path d="m479.493 493.419h-194.343c-8.552 0-15.485-6.933-15.485-15.485v18.581c0 8.552 6.933 15.485 15.485 15.485h77.031l20.141-9.581 20.141 9.581h77.03c8.552 0 15.485-6.933 15.485-15.485v-18.581c0 8.553-6.933 15.485-15.485 15.485z" fill="#f9b067"/><path d="m362.18 376.502 20.141 9 20.142-9v-28.086h-40.283z" fill="#ff4d54"/><path d="m362.18 395.083 20.141 9 20.142-9v-18.581h-40.283z" fill="#ea4955"/><path d="m362.18 395.083h40.283v98.336l-20.141 9-20.142-9z" fill="#cc353e"/><path d="m362.18 493.419h40.282v18.581h-40.282z" fill="#c12131"/></g></g></g></svg>